<svg xmlns="http://www.w3.org/2000/svg" width="1128" height="191" viewBox="0 0 1128 191">
  <defs>
    <linearGradient id="bg" x1="0" y1="0" x2="1" y2="1">
      <stop offset="0%" stop-color="#0d150b"/>
      <stop offset="100%" stop-color="#162012"/>
    </linearGradient>
    <linearGradient id="chartLine" x1="0" y1="0" x2="1" y2="0">
      <stop offset="0%" stop-color="#8ab86a" stop-opacity="0.15"/>
      <stop offset="60%" stop-color="#8ab86a" stop-opacity="0.5"/>
      <stop offset="100%" stop-color="#4ade80"/>
    </linearGradient>
    <linearGradient id="chartFill" x1="0" y1="0" x2="0" y2="1">
      <stop offset="0%" stop-color="#8ab86a" stop-opacity="0.1"/>
      <stop offset="100%" stop-color="#8ab86a" stop-opacity="0"/>
    </linearGradient>
  </defs>

  <!-- Background -->
  <rect width="1128" height="191" fill="url(#bg)"/>

  <!-- Subtle grid -->
  <g stroke="#1a2a16" stroke-width="0.5" opacity="0.35">
    <line x1="0" y1="64" x2="1128" y2="64"/>
    <line x1="0" y1="128" x2="1128" y2="128"/>
    <line x1="282" y1="0" x2="282" y2="191"/>
    <line x1="564" y1="0" x2="564" y2="191"/>
    <line x1="846" y1="0" x2="846" y2="191"/>
  </g>

  <!-- Chart fill -->
  <path d="M0,160 C80,155 160,148 240,140 C320,132 380,138 460,128 C540,118 600,105 680,95 C760,85 820,90 900,78 C960,70 1020,58 1128,40 L1128,191 L0,191 Z" fill="url(#chartFill)"/>

  <!-- Chart line -->
  <path d="M0,160 C80,155 160,148 240,140 C320,132 380,138 460,128 C540,118 600,105 680,95 C760,85 820,90 900,78 C960,70 1020,58 1128,40" fill="none" stroke="url(#chartLine)" stroke-width="2" stroke-linecap="round"/>

  <!-- Chart glow -->
  <path d="M0,160 C80,155 160,148 240,140 C320,132 380,138 460,128 C540,118 600,105 680,95 C760,85 820,90 900,78 C960,70 1020,58 1128,40" fill="none" stroke="#4ade80" stroke-width="5" opacity="0.08" stroke-linecap="round"/>

  <!-- Logo icon -->
  <rect x="48" y="60" width="52" height="52" rx="13" fill="#8ab86a"/>
  <polyline points="63,96 74,82 85,88 93,74" fill="none" stroke="white" stroke-width="3.5" stroke-linecap="round" stroke-linejoin="round"/>
  <circle cx="93" cy="74" r="3.5" fill="white"/>

  <!-- Logo text -->
  <text x="114" y="98" font-family="system-ui, -apple-system, 'Segoe UI', sans-serif" font-size="32" font-weight="700" fill="#f0ead0" letter-spacing="-0.5">Green<tspan fill="#8ab86a">line</tspan></text>

  <!-- Separator dot -->
  <circle cx="330" cy="90" r="3" fill="#2a3a26"/>

  <!-- Tagline -->
  <text x="348" y="98" font-family="system-ui, -apple-system, 'Segoe UI', sans-serif" font-size="18" font-weight="300" fill="#f0ead0" opacity="0.8">Live Market News &amp; Stock Tracker</text>

  <!-- URL -->
  <text x="1080" y="166" text-anchor="end" font-family="ui-monospace, 'SF Mono', monospace" font-size="12" font-weight="400" fill="#3a5434" letter-spacing="0.5">greenlinenews.com</text>

  <!-- Endpoint dot -->
  <circle cx="1100" cy="45" r="4" fill="#4ade80"/>
  <circle cx="1100" cy="45" r="8" fill="#4ade80" opacity="0.15"/>

  <!-- Border -->
  <rect x="0" y="0" width="1128" height="191" fill="none" stroke="#1a2a16" stroke-width="1"/>
</svg>
