<svg xmlns="http://www.w3.org/2000/svg" width="1200" height="630" viewBox="0 0 1200 630">
  <defs>
    <linearGradient id="bg" x1="0" y1="0" x2="1" y2="1">
      <stop offset="0%" stop-color="#0d150b"/>
      <stop offset="100%" stop-color="#162012"/>
    </linearGradient>
    <linearGradient id="chartLine" x1="0" y1="0" x2="1" y2="0">
      <stop offset="0%" stop-color="#8ab86a" stop-opacity="0.3"/>
      <stop offset="40%" stop-color="#8ab86a"/>
      <stop offset="100%" stop-color="#4ade80"/>
    </linearGradient>
    <linearGradient id="chartFill" x1="0" y1="0" x2="0" y2="1">
      <stop offset="0%" stop-color="#8ab86a" stop-opacity="0.15"/>
      <stop offset="100%" stop-color="#8ab86a" stop-opacity="0"/>
    </linearGradient>
    <clipPath id="iconClip"><rect x="80" y="165" width="56" height="56" rx="14"/></clipPath>
    <marker id="arrow" viewBox="0 0 10 10" refX="5" refY="5" markerWidth="4.5" markerHeight="4.5" orient="auto-start-reverse">
      <path d="M0,1 L10,5 L0,9 Z" fill="white"/>
    </marker>
  </defs>

  <!-- Background -->
  <rect width="1200" height="630" fill="url(#bg)"/>

  <!-- Subtle grid lines -->
  <g stroke="#1a2a16" stroke-width="0.5" opacity="0.5">
    <line x1="0" y1="157" x2="1200" y2="157"/>
    <line x1="0" y1="315" x2="1200" y2="315"/>
    <line x1="0" y1="473" x2="1200" y2="473"/>
    <line x1="300" y1="0" x2="300" y2="630"/>
    <line x1="600" y1="0" x2="600" y2="630"/>
    <line x1="900" y1="0" x2="900" y2="630"/>
  </g>

  <!-- Chart area fill -->
  <path d="M0,520 C80,510 140,490 200,470 C280,440 340,460 420,430 C480,410 520,380 580,350 C640,320 700,340 760,310 C820,280 860,250 920,220 C960,200 1020,180 1060,150 C1100,130 1140,120 1200,100 L1200,630 L0,630 Z" fill="url(#chartFill)"/>

  <!-- Chart line -->
  <path d="M0,520 C80,510 140,490 200,470 C280,440 340,460 420,430 C480,410 520,380 580,350 C640,320 700,340 760,310 C820,280 860,250 920,220 C960,200 1020,180 1060,150 C1100,130 1140,120 1200,100" fill="none" stroke="url(#chartLine)" stroke-width="3" stroke-linecap="round" stroke-linejoin="round"/>

  <!-- Glow on chart line -->
  <path d="M0,520 C80,510 140,490 200,470 C280,440 340,460 420,430 C480,410 520,380 580,350 C640,320 700,340 760,310 C820,280 860,250 920,220 C960,200 1020,180 1060,150 C1100,130 1140,120 1200,100" fill="none" stroke="#4ade80" stroke-width="8" stroke-linecap="round" stroke-linejoin="round" opacity="0.12"/>

  <!-- Dot at chart end -->
  <circle cx="1160" cy="110" r="6" fill="#4ade80"/>
  <circle cx="1160" cy="110" r="12" fill="#4ade80" opacity="0.2"/>

  <!-- Logo icon -->
  <rect x="80" y="165" width="56" height="56" rx="14" fill="#8ab86a"/>
  <polyline points="88,210 100,188 110,200 128,175" fill="none" stroke="white" stroke-width="3" stroke-linecap="round" stroke-linejoin="round" clip-path="url(#iconClip)" marker-end="url(#arrow)"/>

  <!-- Logo text -->
  <text x="152" y="200" font-family="system-ui, -apple-system, 'Segoe UI', sans-serif" font-size="46" font-weight="700" fill="#f0ead0" letter-spacing="-1">green<tspan fill="#8ab86a">line</tspan></text>
  <text x="152" y="228" font-family="ui-monospace, 'SF Mono', monospace" font-size="15" font-weight="500" fill="#7a9470" letter-spacing="6">NEWS</text>

  <!-- Tagline -->
  <text x="82" y="290" font-family="system-ui, -apple-system, 'Segoe UI', sans-serif" font-size="32" font-weight="300" fill="#f0ead0" opacity="0.95">Live Market News &amp; Stock Tracker</text>

  <!-- Feature pills -->
  <g font-family="system-ui, -apple-system, 'Segoe UI', sans-serif" font-size="15" font-weight="500">
    <rect x="82" y="330" width="130" height="36" rx="18" fill="#1a2a16" stroke="#2a3a26" stroke-width="1"/>
    <text x="114" y="353" fill="#8ab86a">Real-time</text>

    <rect x="226" y="330" width="140" height="36" rx="18" fill="#1a2a16" stroke="#2a3a26" stroke-width="1"/>
    <text x="253" y="353" fill="#8ab86a">AI Insights</text>

    <rect x="380" y="330" width="140" height="36" rx="18" fill="#1a2a16" stroke="#2a3a26" stroke-width="1"/>
    <text x="407" y="353" fill="#8ab86a">Watchlists</text>

    <rect x="534" y="330" width="166" height="36" rx="18" fill="#1a2a16" stroke="#2a3a26" stroke-width="1"/>
    <text x="556" y="353" fill="#8ab86a">Live RSS Feeds</text>
  </g>

  <!-- URL -->
  <text x="82" y="560" font-family="ui-monospace, 'SF Mono', monospace" font-size="16" font-weight="400" fill="#3a5434" letter-spacing="1">greenlinenews.com</text>

  <!-- Border -->
  <rect x="0" y="0" width="1200" height="630" fill="none" stroke="#1a2a16" stroke-width="2"/>
</svg>
